<?xml version="1.0" encoding="UTF-8"?>
<svg id="Ebene_1" data-name="Ebene 1" xmlns="http://www.w3.org/2000/svg" version="1.1" viewBox="0 0 1000 1000">
  <defs>
    <style>
      .cls-1 {
        fill: #dcbc00;
      }

      .cls-1, .cls-2 {
        stroke-width: 0px;
      }

      .cls-2 {
        fill: #fff;
      }
    </style>
  </defs>
  <g>
    <path class="cls-1" d="M489.16,484.9h-67.5c-9.76,0-16.92-9.17-14.55-18.64l42.5-170c1.67-6.68,7.67-11.36,14.55-11.36h55.79c9.76,0,16.92,9.17,14.55,18.64l-45.34,181.36Z"/>
    <path class="cls-1" d="M473.96,613.9h0c-9.55,0-16.55-8.97-14.24-18.24l45.44-181.76h73.17c11.73,0,18.92,12.86,12.78,22.86l-104.64,170.15c-2.67,4.34-7.4,6.99-12.5,6.99Z"/>
  </g>
  <g>
    <path class="cls-2" d="M280.33,677.57l14.53-.91c.31,2.36.96,4.16,1.92,5.4,1.57,2,3.82,3,6.74,3,2.18,0,3.86-.51,5.04-1.53,1.18-1.02,1.77-2.21,1.77-3.56s-.56-2.43-1.69-3.44c-1.12-1.01-3.73-1.97-7.82-2.87-6.7-1.51-11.48-3.51-14.33-6-2.88-2.5-4.32-5.68-4.32-9.54,0-2.54.74-4.94,2.21-7.2,1.47-2.26,3.69-4.04,6.64-5.33,2.96-1.29,7.01-1.94,12.16-1.94,6.32,0,11.13,1.17,14.45,3.52,3.32,2.35,5.29,6.09,5.92,11.21l-14.4.84c-.38-2.23-1.19-3.84-2.41-4.86-1.23-1.01-2.92-1.52-5.08-1.52-1.78,0-3.11.38-4.01,1.13-.9.75-1.35,1.67-1.35,2.75,0,.79.37,1.5,1.11,2.12.72.65,2.43,1.26,5.13,1.82,6.68,1.44,11.46,2.89,14.35,4.37s4.99,3.3,6.31,5.48c1.31,2.18,1.97,4.62,1.97,7.32,0,3.17-.88,6.09-2.63,8.77-1.75,2.68-4.2,4.7-7.35,6.09-3.15,1.38-7.12,2.07-11.9,2.07-8.41,0-14.23-1.62-17.47-4.86s-5.07-7.35-5.5-12.34Z"/>
    <path class="cls-2" d="M348.51,644.49v13.62h7.55v10.05h-7.55v12.69c0,1.53.15,2.54.44,3.03.45.76,1.24,1.14,2.36,1.14,1.01,0,2.43-.29,4.25-.88l1.01,9.47c-3.39.74-6.56,1.11-9.51,1.11-3.42,0-5.94-.44-7.55-1.31-1.62-.88-2.82-2.21-3.59-3.99-.78-1.79-1.16-4.68-1.16-8.67v-12.6h-5.06v-10.05h5.06v-6.58l13.76-7.05Z"/>
    <path class="cls-2" d="M362.74,658.11h12.85v5.87c1.24-2.54,2.51-4.29,3.83-5.24,1.31-.96,2.94-1.43,4.87-1.43s4.24.63,6.64,1.89l-4.25,9.78c-1.62-.67-2.9-1.01-3.84-1.01-1.8,0-3.19.74-4.18,2.23-1.42,2.09-2.12,6-2.12,11.74v12h-13.79v-35.81Z"/>
    <path class="cls-2" d="M392.69,676.12c0-5.46,1.84-9.96,5.53-13.51,3.69-3.54,8.67-5.31,14.94-5.31,7.17,0,12.59,2.08,16.25,6.24,2.94,3.35,4.42,7.47,4.42,12.38,0,5.51-1.83,10.02-5.48,13.54-3.65,3.52-8.71,5.28-15.16,5.28-5.75,0-10.41-1.46-13.96-4.38-4.36-3.62-6.54-8.36-6.54-14.23ZM406.45,676.08c0,3.19.65,5.55,1.94,7.08,1.29,1.53,2.92,2.29,4.87,2.29s3.6-.75,4.87-2.26c1.27-1.51,1.91-3.92,1.91-7.25,0-3.1-.64-5.41-1.92-6.93s-2.87-2.28-4.75-2.28c-2,0-3.65.77-4.96,2.31s-1.96,3.88-1.96,7.03Z"/>
    <path class="cls-2" d="M440.54,658.11h12.81v5.23c1.85-2.18,3.71-3.73,5.59-4.65s4.15-1.38,6.81-1.38c2.86,0,5.12.51,6.79,1.52s3.03,2.52,4.09,4.52c2.15-2.34,4.12-3.93,5.89-4.77,1.77-.84,3.96-1.26,6.57-1.26,3.84,0,6.84,1.14,8.99,3.42,2.15,2.28,3.23,5.85,3.23,10.71v22.49h-13.76v-20.4c0-1.62-.31-2.82-.94-3.61-.92-1.24-2.06-1.85-3.43-1.85-1.61,0-2.91.58-3.9,1.75-.99,1.17-1.48,3.05-1.48,5.63v18.48h-13.76v-19.73c0-1.57-.09-2.64-.27-3.2-.29-.9-.8-1.62-1.52-2.17s-1.57-.83-2.54-.83c-1.58,0-2.88.6-3.89,1.79-1.02,1.19-1.52,3.15-1.52,5.87v18.28h-13.76v-35.81Z"/>
    <path class="cls-2" d="M509.97,644.49h13.76v49.44h-13.76v-49.44Z"/>
    <path class="cls-2" d="M533,644.49h13.72v9.34h-13.72v-9.34ZM533,658.11h13.72v35.81h-13.72v-35.81Z"/>
    <path class="cls-2" d="M555.49,658.11h12.78v5.83c1.91-2.38,3.84-4.08,5.8-5.11,1.96-1.02,4.34-1.53,7.15-1.53,3.8,0,6.77,1.13,8.92,3.39,2.15,2.26,3.22,5.75,3.22,10.47v22.76h-13.79v-19.69c0-2.25-.42-3.84-1.25-4.77-.83-.93-2-1.4-3.51-1.4-1.66,0-3.01.63-4.05,1.89-1.03,1.26-1.55,3.52-1.55,6.78v17.2h-13.72v-35.81Z"/>
    <path class="cls-2" d="M626.48,658.11h12.85v33.82l.03,1.58c0,2.25-.48,4.39-1.43,6.42-.96,2.03-2.23,3.68-3.81,4.94-1.58,1.26-3.6,2.17-6.04,2.73-2.44.56-5.23.84-8.38.84-7.19,0-12.13-1.08-14.82-3.24-2.69-2.16-4.03-5.05-4.03-8.67,0-.45.02-1.06.07-1.82l13.32,1.52c.34,1.24.85,2.09,1.55,2.56,1.01.7,2.28,1.04,3.81,1.04,1.98,0,3.46-.53,4.43-1.58s1.47-2.9,1.47-5.53v-5.43c-1.35,1.6-2.7,2.75-4.05,3.47-2.11,1.12-4.4,1.69-6.84,1.69-4.79,0-8.66-2.09-11.6-6.27-2.09-2.97-3.14-6.89-3.14-11.77,0-5.58,1.35-9.82,4.05-12.75,2.7-2.92,6.23-4.38,10.59-4.38,2.79,0,5.09.47,6.9,1.42,1.81.94,3.5,2.51,5.07,4.69v-5.29ZM613.56,675.48c0,2.58.55,4.5,1.65,5.75,1.1,1.25,2.55,1.87,4.35,1.87s3.14-.65,4.3-1.94c1.16-1.29,1.74-3.24,1.74-5.85s-.61-4.6-1.82-5.99-2.7-2.07-4.45-2.07-3.15.64-4.2,1.91c-1.05,1.27-1.57,3.38-1.57,6.32Z"/>
    <path class="cls-2" d="M687.38,679.42h-27.52c.25,2.2.84,3.84,1.79,4.92,1.33,1.55,3.06,2.33,5.19,2.33,1.35,0,2.63-.34,3.84-1.01.74-.43,1.54-1.18,2.39-2.26l13.52,1.25c-2.07,3.6-4.56,6.18-7.49,7.74-2.92,1.56-7.12,2.34-12.58,2.34-4.74,0-8.48-.67-11.2-2.01-2.72-1.34-4.97-3.46-6.76-6.37-1.79-2.91-2.68-6.33-2.68-10.27,0-5.6,1.79-10.13,5.38-13.59,3.58-3.46,8.54-5.19,14.85-5.19,5.12,0,9.17.78,12.14,2.33,2.97,1.55,5.23,3.8,6.78,6.75,1.55,2.95,2.33,6.78,2.33,11.5v1.55ZM673.42,672.85c-.27-2.65-.98-4.55-2.14-5.7-1.16-1.15-2.68-1.72-4.57-1.72-2.18,0-3.92.87-5.23,2.6-.83,1.08-1.36,2.69-1.58,4.82h13.52Z"/>
    <path class="cls-2" d="M693.82,658.11h12.85v5.87c1.24-2.54,2.51-4.29,3.83-5.24,1.31-.96,2.94-1.43,4.87-1.43s4.24.63,6.64,1.89l-4.25,9.78c-1.62-.67-2.9-1.01-3.84-1.01-1.8,0-3.19.74-4.18,2.23-1.42,2.09-2.12,6-2.12,11.74v12h-13.79v-35.81Z"/>
  </g>
</svg>